<mxfile host="app.diagrams.net" modified="2022-02-21T07:57:02.883Z" agent="5.0 (Macintosh; Intel Mac OS X 10_15_7) AppleWebKit/537.36 (KHTML, like Gecko) Chrome/98.0.4758.102 Safari/537.36" etag="3jzggP70g-Lszalg0oaT" compressed="false" version="16.6.1" type="github">
  <diagram id="pBcjqEdFsgfQmg1a2mWG" name="Page-1">
    <mxGraphModel dx="926" dy="1320" grid="0" gridSize="10" guides="1" tooltips="1" connect="1" arrows="1" fold="1" page="1" pageScale="1" pageWidth="1169" pageHeight="827" math="0" shadow="0">
      <root>
        <mxCell id="0" />
        <mxCell id="1" parent="0" />
        <mxCell id="A6NbXT8_dKEW4dwMow8V-25" value="Pool" style="swimlane;childLayout=stackLayout;resizeParent=1;resizeParentMax=0;startSize=20;rounded=0;shadow=0;glass=0;fontSize=18;strokeColor=default;strokeWidth=1;fillColor=default;noLabel=1;portConstraintRotation=0;connectable=1;allowArrows=1;snapToPoint=0;backgroundOutline=0;rotatable=1;cloneable=1;deletable=1;comic=0;enumerate=0;swimlaneBody=1;swimlaneHead=0;horizontal=1;swimlaneLine=1;" parent="1" vertex="1">
          <mxGeometry x="200" y="-660" width="330" height="600" as="geometry" />
        </mxCell>
        <mxCell id="A6NbXT8_dKEW4dwMow8V-26" value="业务方" style="swimlane;startSize=20;rounded=0;shadow=0;glass=0;fontSize=18;strokeColor=default;strokeWidth=1;fillColor=default;" parent="A6NbXT8_dKEW4dwMow8V-25" vertex="1">
          <mxGeometry y="20" width="160" height="580" as="geometry" />
        </mxCell>
        <mxCell id="LMv_qMbZr2J3lBFjA7qK-20" style="edgeStyle=orthogonalEdgeStyle;rounded=0;orthogonalLoop=1;jettySize=auto;html=1;exitX=0.5;exitY=1;exitDx=0;exitDy=0;" parent="A6NbXT8_dKEW4dwMow8V-26" source="LMv_qMbZr2J3lBFjA7qK-12" target="LMv_qMbZr2J3lBFjA7qK-13" edge="1">
          <mxGeometry relative="1" as="geometry" />
        </mxCell>
        <mxCell id="LMv_qMbZr2J3lBFjA7qK-12" value="调用SDK接口" style="rounded=0;whiteSpace=wrap;html=1;" parent="A6NbXT8_dKEW4dwMow8V-26" vertex="1">
          <mxGeometry x="30" y="170" width="100" height="40" as="geometry" />
        </mxCell>
        <mxCell id="LMv_qMbZr2J3lBFjA7qK-13" value="提交数据" style="rounded=0;whiteSpace=wrap;html=1;" parent="A6NbXT8_dKEW4dwMow8V-26" vertex="1">
          <mxGeometry x="30" y="240" width="100" height="40" as="geometry" />
        </mxCell>
        <mxCell id="LMv_qMbZr2J3lBFjA7qK-19" style="edgeStyle=orthogonalEdgeStyle;rounded=0;orthogonalLoop=1;jettySize=auto;html=1;exitX=0.5;exitY=1;exitDx=0;exitDy=0;entryX=0.5;entryY=0;entryDx=0;entryDy=0;" parent="A6NbXT8_dKEW4dwMow8V-26" source="LMv_qMbZr2J3lBFjA7qK-14" target="LMv_qMbZr2J3lBFjA7qK-12" edge="1">
          <mxGeometry relative="1" as="geometry" />
        </mxCell>
        <mxCell id="LMv_qMbZr2J3lBFjA7qK-14" value="集成SDK jar包" style="rounded=0;whiteSpace=wrap;html=1;" parent="A6NbXT8_dKEW4dwMow8V-26" vertex="1">
          <mxGeometry x="30" y="100" width="100" height="40" as="geometry" />
        </mxCell>
        <mxCell id="A6NbXT8_dKEW4dwMow8V-27" value="稳定性数据采集服务" style="swimlane;startSize=20;rounded=0;shadow=0;glass=0;fontSize=18;strokeColor=default;strokeWidth=1;fillColor=default;" parent="A6NbXT8_dKEW4dwMow8V-25" vertex="1">
          <mxGeometry x="160" y="20" width="170" height="580" as="geometry" />
        </mxCell>
        <mxCell id="LMv_qMbZr2J3lBFjA7qK-22" style="edgeStyle=orthogonalEdgeStyle;rounded=0;orthogonalLoop=1;jettySize=auto;html=1;exitX=0.5;exitY=1;exitDx=0;exitDy=0;entryX=0.5;entryY=0;entryDx=0;entryDy=0;" parent="A6NbXT8_dKEW4dwMow8V-27" source="A6NbXT8_dKEW4dwMow8V-9" target="A6NbXT8_dKEW4dwMow8V-10" edge="1">
          <mxGeometry relative="1" as="geometry" />
        </mxCell>
        <mxCell id="A6NbXT8_dKEW4dwMow8V-9" value="获取数据采集模版" style="rounded=0;whiteSpace=wrap;html=1;" parent="A6NbXT8_dKEW4dwMow8V-27" vertex="1">
          <mxGeometry x="35" y="240" width="100" height="40" as="geometry" />
        </mxCell>
        <mxCell id="LMv_qMbZr2J3lBFjA7qK-23" style="edgeStyle=orthogonalEdgeStyle;rounded=0;orthogonalLoop=1;jettySize=auto;html=1;exitX=0.5;exitY=1;exitDx=0;exitDy=0;entryX=0.5;entryY=0;entryDx=0;entryDy=0;" parent="A6NbXT8_dKEW4dwMow8V-27" source="A6NbXT8_dKEW4dwMow8V-10" target="LMv_qMbZr2J3lBFjA7qK-2" edge="1">
          <mxGeometry relative="1" as="geometry" />
        </mxCell>
        <mxCell id="A6NbXT8_dKEW4dwMow8V-10" value="数据模版校验" style="rounded=0;whiteSpace=wrap;html=1;" parent="A6NbXT8_dKEW4dwMow8V-27" vertex="1">
          <mxGeometry x="35" y="310" width="100" height="40" as="geometry" />
        </mxCell>
        <mxCell id="A6NbXT8_dKEW4dwMow8V-11" value="数据存储" style="rounded=0;whiteSpace=wrap;html=1;" parent="A6NbXT8_dKEW4dwMow8V-27" vertex="1">
          <mxGeometry x="35" y="520" width="100" height="40" as="geometry" />
        </mxCell>
        <mxCell id="LMv_qMbZr2J3lBFjA7qK-24" style="edgeStyle=orthogonalEdgeStyle;rounded=0;orthogonalLoop=1;jettySize=auto;html=1;exitX=0.5;exitY=1;exitDx=0;exitDy=0;entryX=0.5;entryY=0;entryDx=0;entryDy=0;" parent="A6NbXT8_dKEW4dwMow8V-27" source="LMv_qMbZr2J3lBFjA7qK-2" target="LMv_qMbZr2J3lBFjA7qK-3" edge="1">
          <mxGeometry relative="1" as="geometry" />
        </mxCell>
        <mxCell id="LMv_qMbZr2J3lBFjA7qK-2" value="数据提取" style="rounded=0;whiteSpace=wrap;html=1;" parent="A6NbXT8_dKEW4dwMow8V-27" vertex="1">
          <mxGeometry x="35" y="380" width="100" height="40" as="geometry" />
        </mxCell>
        <mxCell id="LMv_qMbZr2J3lBFjA7qK-25" style="edgeStyle=orthogonalEdgeStyle;rounded=0;orthogonalLoop=1;jettySize=auto;html=1;exitX=0.5;exitY=1;exitDx=0;exitDy=0;entryX=0.5;entryY=0;entryDx=0;entryDy=0;" parent="A6NbXT8_dKEW4dwMow8V-27" source="LMv_qMbZr2J3lBFjA7qK-3" target="A6NbXT8_dKEW4dwMow8V-11" edge="1">
          <mxGeometry relative="1" as="geometry" />
        </mxCell>
        <mxCell id="LMv_qMbZr2J3lBFjA7qK-3" value="发消息/报警" style="rounded=0;whiteSpace=wrap;html=1;dashed=1;" parent="A6NbXT8_dKEW4dwMow8V-27" vertex="1">
          <mxGeometry x="35" y="450" width="100" height="40" as="geometry" />
        </mxCell>
        <mxCell id="LMv_qMbZr2J3lBFjA7qK-21" value="" style="endArrow=classic;html=1;rounded=0;entryX=0;entryY=0.5;entryDx=0;entryDy=0;" parent="A6NbXT8_dKEW4dwMow8V-27" target="A6NbXT8_dKEW4dwMow8V-9" edge="1">
          <mxGeometry width="50" height="50" relative="1" as="geometry">
            <mxPoint x="-30" y="260" as="sourcePoint" />
            <mxPoint x="30" y="260" as="targetPoint" />
          </mxGeometry>
        </mxCell>
        <mxCell id="A6NbXT8_dKEW4dwMow8V-31" value="稳定性数据管理后台" style="swimlane;startSize=20;rounded=0;shadow=0;glass=0;fontSize=18;strokeColor=default;strokeWidth=1;fillColor=default;" parent="1" vertex="1">
          <mxGeometry x="530" y="-640" width="180" height="580" as="geometry" />
        </mxCell>
        <mxCell id="LMv_qMbZr2J3lBFjA7qK-1" value="SDK jar包生成" style="rounded=0;whiteSpace=wrap;html=1;" parent="A6NbXT8_dKEW4dwMow8V-31" vertex="1">
          <mxGeometry x="40" y="100" width="100" height="40" as="geometry" />
        </mxCell>
        <mxCell id="A6NbXT8_dKEW4dwMow8V-13" value="数据采集模版定义" style="rounded=0;whiteSpace=wrap;html=1;" parent="A6NbXT8_dKEW4dwMow8V-31" vertex="1">
          <mxGeometry x="40" y="30" width="100" height="40" as="geometry" />
        </mxCell>
        <mxCell id="LMv_qMbZr2J3lBFjA7qK-15" value="" style="endArrow=classic;html=1;rounded=0;exitX=0.5;exitY=1;exitDx=0;exitDy=0;entryX=0.5;entryY=0;entryDx=0;entryDy=0;" parent="A6NbXT8_dKEW4dwMow8V-31" source="A6NbXT8_dKEW4dwMow8V-13" target="LMv_qMbZr2J3lBFjA7qK-1" edge="1">
          <mxGeometry width="50" height="50" relative="1" as="geometry">
            <mxPoint x="20" y="260" as="sourcePoint" />
            <mxPoint x="90" y="90" as="targetPoint" />
          </mxGeometry>
        </mxCell>
        <mxCell id="A6NbXT8_dKEW4dwMow8V-28" value="Dchat" style="swimlane;startSize=20;rounded=0;shadow=0;glass=0;fontSize=18;strokeColor=default;strokeWidth=1;fillColor=default;" parent="1" vertex="1">
          <mxGeometry x="710" y="-640" width="250" height="580" as="geometry" />
        </mxCell>
        <mxCell id="LMv_qMbZr2J3lBFjA7qK-26" value="通知/告警消息&lt;br&gt;展示" style="rounded=0;whiteSpace=wrap;html=1;" parent="A6NbXT8_dKEW4dwMow8V-28" vertex="1">
          <mxGeometry x="10" y="450" width="100" height="40" as="geometry" />
        </mxCell>
        <mxCell id="LMv_qMbZr2J3lBFjA7qK-27" value="图形展示" style="rounded=0;whiteSpace=wrap;html=1;" parent="A6NbXT8_dKEW4dwMow8V-28" vertex="1">
          <mxGeometry x="130" y="450" width="100" height="40" as="geometry" />
        </mxCell>
        <mxCell id="LMv_qMbZr2J3lBFjA7qK-17" value="" style="endArrow=classic;html=1;rounded=0;exitX=0;exitY=0.5;exitDx=0;exitDy=0;entryX=1;entryY=0.5;entryDx=0;entryDy=0;" parent="1" source="LMv_qMbZr2J3lBFjA7qK-1" target="LMv_qMbZr2J3lBFjA7qK-14" edge="1">
          <mxGeometry width="50" height="50" relative="1" as="geometry">
            <mxPoint x="550" y="-380" as="sourcePoint" />
            <mxPoint x="600" y="-430" as="targetPoint" />
          </mxGeometry>
        </mxCell>
        <mxCell id="LMv_qMbZr2J3lBFjA7qK-30" style="edgeStyle=orthogonalEdgeStyle;rounded=0;orthogonalLoop=1;jettySize=auto;html=1;exitX=1;exitY=0.5;exitDx=0;exitDy=0;entryX=0;entryY=0.5;entryDx=0;entryDy=0;" parent="1" source="LMv_qMbZr2J3lBFjA7qK-3" target="LMv_qMbZr2J3lBFjA7qK-26" edge="1">
          <mxGeometry relative="1" as="geometry" />
        </mxCell>
        <mxCell id="LMv_qMbZr2J3lBFjA7qK-34" style="edgeStyle=orthogonalEdgeStyle;orthogonalLoop=1;jettySize=auto;html=1;exitX=0.5;exitY=1;exitDx=0;exitDy=0;startFill=1;endFill=0;anchorPointDirection=1;rounded=0;startArrow=classic;endArrow=none;" parent="1" source="LMv_qMbZr2J3lBFjA7qK-27" edge="1">
          <mxGeometry relative="1" as="geometry">
            <mxPoint x="590" y="-170" as="targetPoint" />
            <Array as="points">
              <mxPoint x="890" y="-130" />
              <mxPoint x="610" y="-130" />
              <mxPoint x="610" y="-170" />
            </Array>
          </mxGeometry>
        </mxCell>
      </root>
    </mxGraphModel>
  </diagram>
</mxfile>
